<svg width="141.000000" height="21.000000" viewBox="0 0 141 21" fill="none" xmlns="http://www.w3.org/2000/svg" xmlns:xlink="http://www.w3.org/1999/xlink">
	<desc>
			Created with Pixso.
	</desc>
	<defs>
		<filter id="filter_1_2227_dd" x="-8.928833" y="-9.427734" width="36.821045" height="38.857422" filterUnits="userSpaceOnUse" color-interpolation-filters="sRGB">
			<feFlood flood-opacity="0" result="BackgroundImageFix"/>
			<feBlend mode="normal" in="SourceGraphic" in2="BackgroundImageFix" result="shape"/>
			<feGaussianBlur stdDeviation="2.97648" result="effect_layerBlur_1"/>
		</filter>
	</defs>
	<path id="Left Triangle" d="M3.87 19.93C1.61 21.23 0 20.14 0 18.21C0 16.16 0 10 0 10C0 10 0 3.83 0 1.78C0 -0.15 1.61 -1.24 3.87 0.07C7.38 2.09 17.91 8.18 17.91 8.18C19.31 8.98 19.31 11.01 17.91 11.82C17.91 11.82 7.38 17.9 3.87 19.93Z" fill="#00C1FF" fill-opacity="1.000000" fill-rule="nonzero"/>
	<path id="Right Triangle" d="M15.46 19.92C13.2 21.23 11.58 20.14 11.58 18.21C11.58 16.16 11.58 9.99 11.58 9.99C11.58 9.99 11.58 3.83 11.58 1.78C11.58 -0.15 13.2 -1.24 15.46 0.06C18.89 2.05 29.19 8 29.19 8C30.73 8.88 30.73 11.1 29.19 11.99C29.19 11.99 18.89 17.94 15.46 19.92Z" fill="#BCEC30" fill-opacity="1.000000" fill-rule="nonzero"/>
	<mask id="mask1_2226" mask-type="alpha" maskUnits="userSpaceOnUse" x="11.589355" y="-0.500000" width="18.756958" height="20.998047">
		<path id="Mask" d="M15.46 19.92C13.2 21.23 11.58 20.14 11.58 18.21C11.58 16.16 11.58 9.99 11.58 9.99C11.58 9.99 11.58 3.83 11.58 1.78C11.58 -0.15 13.2 -1.24 15.46 0.06C18.89 2.05 29.19 8 29.19 8C30.73 8.88 30.73 11.1 29.19 11.99C29.19 11.99 18.89 17.94 15.46 19.92Z" fill="#6FE4FF" fill-opacity="1.000000" fill-rule="nonzero"/>
	</mask>
	<g mask="url(#mask1_2226)">
		<g filter="url(#filter_1_2227_dd)">
			<path id="Blur" d="M3.87 19.93C1.61 21.23 0 20.14 0 18.21C0 16.16 0 10 0 10C0 10 0 3.83 0 1.78C0 -0.15 1.61 -1.24 3.87 0.07C7.38 2.09 17.91 8.18 17.91 8.18C19.31 8.98 19.31 11.01 17.91 11.82C17.91 11.82 7.38 17.9 3.87 19.93Z" fill="#99D100" fill-opacity="1.000000" fill-rule="nonzero"/>
		</g>
	</g>
	<path id="Vector" d="M37.69 13.66L38.08 12.77C38.35 12.16 38.83 12 39.43 12.45C40.59 13.31 42.5 13.93 45.06 13.93C47.23 13.93 48.16 13.38 48.16 12.72C48.16 11.96 47.39 11.77 46.13 11.61L43.24 11.23C39.76 10.77 38.01 9.52 38.01 7.33C38.01 4.99 39.92 3.13 44.34 3.13C46.8 3.13 48.39 3.51 49.43 3.9C50.57 4.35 50.73 4.72 50.73 5.65L50.73 6.87C50.73 7.62 50.46 7.87 49.73 7.87L48.91 7.87C48.16 7.87 47.91 7.6 47.91 6.87L47.91 6.48C47.43 6.31 46.23 6.08 44.84 6.08C42.4 6.08 41.22 6.53 41.22 7.28C41.22 7.83 41.93 8.16 43.24 8.33L46.07 8.71C49.5 9.14 51.32 10.18 51.32 12.68C51.32 15.22 48.91 16.85 44.61 16.85C41.45 16.85 38.92 15.84 37.9 14.91C37.54 14.56 37.49 14.11 37.69 13.66Z" fill="#000000" fill-opacity="1.000000" fill-rule="nonzero"/>
	<path id="Vector" d="M69.02 16.63L67.56 16.63C66.84 16.63 66.61 16.52 66.26 15.99L63.51 11.93C63.11 11.37 62.81 11.23 61.99 11.23L59.24 11.23L59.24 15.63C59.24 16.38 58.97 16.63 58.24 16.63L57.19 16.63C56.44 16.63 56.19 16.36 56.19 15.63L56.19 2.43L55.21 2.43C54.46 2.43 54.21 2.17 54.21 1.43L54.21 0.54C54.21 -0.21 54.48 -0.46 55.21 -0.46L58.26 -0.46C59.01 -0.46 59.26 -0.19 59.26 0.54L59.26 8.26L61.72 8.26C62.54 8.26 62.83 8.14 63.24 7.57L65.54 4.01C65.92 3.45 66.15 3.35 66.86 3.35L68.33 3.35C69.13 3.35 69.27 3.99 68.82 4.65L66.26 8.55C65.99 8.92 65.67 9.32 65.36 9.64C65.68 9.91 66.13 10.35 66.31 10.62L69.52 15.36C69.97 15.99 69.81 16.63 69.02 16.63Z" fill="#000000" fill-opacity="1.000000" fill-rule="nonzero"/>
	<path id="Vector" d="M74.24 19.06L74.24 18.19C74.24 17.43 74.51 17.18 75.24 17.18L76.51 17.18C77.28 17.18 77.65 17.02 77.94 16.42L78.1 16.08L72.03 4.58C71.66 3.88 71.96 3.36 72.74 3.36L74.12 3.36C74.83 3.36 75.15 3.49 75.42 4.01L77.95 9.23C78.54 10.43 79.2 11.8 79.72 13C80.26 11.84 80.86 10.5 81.43 9.33L84.02 4.01C84.25 3.51 84.61 3.36 85.33 3.36L86.7 3.36C87.5 3.36 87.79 3.9 87.41 4.58L80.51 17.72C79.7 19.24 78.79 20.08 76.72 20.08L75.21 20.08C74.49 20.08 74.24 19.81 74.24 19.06Z" fill="#000000" fill-opacity="1.000000" fill-rule="nonzero"/>
	<path id="Vector" d="M106.08 10C106.08 14.22 102.95 16.85 98.74 16.85C96.92 16.85 95.53 16.4 94.55 15.84L94.55 19.46C94.55 20.21 94.28 20.46 93.55 20.46L92.49 20.46C91.75 20.46 91.5 20.19 91.5 19.46L91.5 6.26L90.51 6.26C89.76 6.26 89.51 5.99 89.51 5.26L89.51 4.37C89.51 3.61 89.78 3.36 90.51 3.36L93.08 3.36C93.83 3.36 94.08 3.63 94.08 4.37L94.08 4.44C95.08 3.78 96.6 3.13 98.74 3.13C102.95 3.15 106.08 5.78 106.08 10ZM102.9 10C102.9 7.53 100.92 6.15 98.46 6.15C96.69 6.15 95.24 6.9 94.56 7.51L94.56 12.5C95.26 13.11 96.69 13.86 98.46 13.86C100.92 13.84 102.9 12.47 102.9 10Z" fill="#000000" fill-opacity="1.000000" fill-rule="nonzero"/>
	<path id="Vector" d="M122.7 8.96C122.7 9.71 122.43 9.96 121.7 9.96L120.65 9.96C119.9 9.96 119.65 9.75 119.65 8.96C119.65 6.99 118.9 6.12 117.12 6.12C115.42 6.12 114.01 7.17 113.22 8.46L113.22 15.63C113.22 16.38 112.96 16.63 112.23 16.63L111.17 16.63C110.42 16.63 110.17 16.36 110.17 15.63L110.17 6.26L109.19 6.26C108.44 6.26 108.19 5.99 108.19 5.26L108.19 4.37C108.19 3.61 108.46 3.36 109.19 3.36L111.76 3.36C112.51 3.36 112.76 3.63 112.76 4.37L112.76 5.22C113.71 4.17 115.15 3.15 117.61 3.15C121.22 3.15 122.7 5.3 122.7 8.96Z" fill="#000000" fill-opacity="1.000000" fill-rule="nonzero"/>
	<path id="Vector" d="M124.6 10C124.6 6.06 127.91 3.15 132.32 3.15C136.69 3.15 140 6.06 140 10C140 13.95 136.68 16.86 132.32 16.86C127.91 16.86 124.6 13.95 124.6 10ZM136.96 10C136.96 7.71 134.95 6.05 132.32 6.05C129.64 6.05 127.63 7.73 127.63 10C127.63 12.3 129.64 13.99 132.32 13.99C134.96 13.99 136.96 12.3 136.96 10Z" fill="#000000" fill-opacity="1.000000" fill-rule="nonzero"/>
</svg>
