<svg width="19.000000" height="18.000000" viewBox="0 0 19 18" fill="none" xmlns="http://www.w3.org/2000/svg" xmlns:xlink="http://www.w3.org/1999/xlink">
	<desc>
			Created with Pixso.
	</desc>
	<defs/>
	<path id="Ellipse 3" d="M5.03 3.09Q4.9 3.11 4.78 3.14Q4.31 3.25 3.85 3.44Q3.39 3.63 2.98 3.9Q2.51 4.21 2.11 4.62Q1.7 5.02 1.39 5.49Q1.12 5.9 0.93 6.36Q0.74 6.81 0.63 7.28Q0.5 7.88 0.5 8.5Q0.5 9.13 0.63 9.72Q0.74 10.19 0.93 10.65Q1.12 11.11 1.39 11.52Q1.7 11.99 2.11 12.39Q2.51 12.8 2.98 13.11Q3.39 13.38 3.85 13.57Q4.31 13.76 4.78 13.87Q5.37 14 6 14L6 15Q5.27 15 4.58 14.85Q4.01 14.72 3.46 14.49Q2.91 14.26 2.42 13.94Q1.87 13.58 1.4 13.1Q0.92 12.63 0.56 12.08Q0.24 11.58 0.01 11.03Q-0.22 10.49 -0.35 9.92Q-0.5 9.23 -0.5 8.5Q-0.5 7.78 -0.35 7.09Q-0.22 6.52 0.01 5.97Q0.24 5.42 0.56 4.93Q0.92 4.38 1.4 3.91Q1.87 3.43 2.42 3.07Q2.91 2.75 3.46 2.52Q4.01 2.29 4.58 2.16Q4.8 2.11 5.03 2.07L5.03 -0.36L10 2.5L5.03 5.37L5.03 3.09Z" fill="#696969" fill-opacity="1.000000" fill-rule="evenodd"/>
	<path id="Ellipse 4" d="M12.96 13.92Q13.09 13.9 13.21 13.87Q13.68 13.76 14.14 13.57Q14.6 13.38 15.01 13.11Q15.48 12.8 15.88 12.39Q16.29 11.99 16.6 11.52Q16.87 11.11 17.06 10.65Q17.25 10.19 17.36 9.72Q17.5 9.13 17.5 8.5Q17.5 7.88 17.36 7.28Q17.25 6.81 17.06 6.36Q16.87 5.9 16.6 5.49Q16.29 5.02 15.88 4.62Q15.48 4.21 15.01 3.9Q14.6 3.63 14.14 3.44Q13.68 3.25 13.21 3.14Q12.62 3 12 3L12 2Q12.72 2 13.41 2.16Q13.98 2.29 14.53 2.52Q15.08 2.75 15.57 3.07Q16.12 3.43 16.59 3.91Q17.07 4.38 17.43 4.93Q17.75 5.42 17.98 5.97Q18.21 6.52 18.34 7.09Q18.5 7.78 18.5 8.5Q18.5 9.23 18.34 9.92Q18.21 10.49 17.98 11.03Q17.75 11.58 17.43 12.08Q17.07 12.63 16.59 13.1Q16.12 13.58 15.57 13.94Q15.08 14.26 14.53 14.49Q13.98 14.72 13.41 14.85Q13.19 14.9 12.96 14.93L12.96 17.37L8 14.5L12.96 11.64L12.96 13.92Z" fill="#696969" fill-opacity="1.000000" fill-rule="evenodd"/>
</svg>
