<svg width="20.000000" height="18.000000" viewBox="0 0 20 18" fill="none" xmlns="http://www.w3.org/2000/svg" xmlns:xlink="http://www.w3.org/1999/xlink">
	<desc>
			Created with Pixso.
	</desc>
	<defs/>
	<path id="Vector 8" d="M1.79 2L-0.5 2L-0.5 3L1.79 3Q2.13 3 2.47 3.06Q2.77 3.1 3.06 3.19Q3.36 3.28 3.64 3.4Q3.94 3.54 4.22 3.72Q4.5 3.9 4.74 4.11Q4.97 4.31 5.18 4.54Q5.38 4.77 5.54 5.03Q5.73 5.31 5.88 5.63L8.7 11.8Q8.88 12.18 9.11 12.53Q9.31 12.84 9.56 13.12Q9.81 13.41 10.09 13.65Q10.39 13.92 10.73 14.13Q11.07 14.35 11.43 14.51Q11.78 14.67 12.14 14.78Q12.5 14.89 12.87 14.94Q13.28 15 13.7 15L14.53 15L14.53 17.37L19.5 14.5L14.53 11.64L14.53 14L13.7 14Q13.36 14 13.02 13.95Q12.72 13.91 12.43 13.82Q12.13 13.73 11.85 13.61Q11.55 13.47 11.27 13.29Q10.99 13.11 10.75 12.9Q10.52 12.7 10.31 12.46Q10.11 12.23 9.95 11.98Q9.76 11.7 9.61 11.38L6.79 5.21Q6.61 4.83 6.38 4.48Q6.18 4.17 5.93 3.89Q5.68 3.6 5.4 3.35Q5.1 3.09 4.76 2.88Q4.42 2.66 4.06 2.49Q3.71 2.34 3.35 2.23Q2.99 2.12 2.62 2.07Q2.21 2 1.79 2Z" fill="#696969" fill-opacity="1.000000" fill-rule="evenodd"/>
	<path id="Vector 9" d="M1.79 15L-0.5 15L-0.5 14L1.79 14Q2.13 14 2.47 13.95Q2.77 13.91 3.06 13.82Q3.36 13.73 3.64 13.61Q3.94 13.47 4.22 13.29Q4.5 13.11 4.74 12.9Q4.97 12.7 5.18 12.46Q5.38 12.23 5.54 11.98Q5.73 11.7 5.88 11.38L8.7 5.21Q8.88 4.83 9.11 4.48Q9.31 4.17 9.56 3.89Q9.81 3.6 10.09 3.35Q10.39 3.09 10.73 2.88Q11.07 2.66 11.43 2.49Q11.78 2.34 12.14 2.23Q12.5 2.12 12.87 2.07Q13.28 2 13.7 2L14.53 2L14.53 -0.36L19.5 2.5L14.53 5.37L14.53 3L13.7 3Q13.36 3 13.02 3.06Q12.72 3.1 12.43 3.19Q12.13 3.28 11.85 3.4Q11.55 3.54 11.27 3.72Q10.99 3.9 10.75 4.11Q10.52 4.31 10.31 4.54Q10.11 4.77 9.95 5.03Q9.76 5.31 9.61 5.63L6.79 11.8Q6.61 12.18 6.38 12.53Q6.18 12.84 5.93 13.12Q5.68 13.41 5.4 13.65Q5.1 13.92 4.76 14.13Q4.42 14.35 4.06 14.51Q3.71 14.67 3.35 14.78Q2.99 14.89 2.62 14.94Q2.21 15 1.79 15Z" fill="#696969" fill-opacity="1.000000" fill-rule="evenodd"/>
</svg>
